# xmcd
# Track frame offsets:
# 150
# 12395
# 23498
# 34373
# 46138
# 57918
# 68111
# 81662
# 91651
# 103059
# 114729
# 124346
# 133561
# 143542
# 154445
# 165792
# 175572
# 188832
# 201212
# 214311
# 225612
# 236684
# 248147
# 259292
#
# Disc length: 3605 seconds
# Revision: 0
# Processed by: cddbd v1.5.2PL0 Copyright (c) Steve Scherf et al.
# Submitted via: VisiTrax 2.11.1.266 - For more info visit www.synapsa.com
#
DISCID=4c0e1318
DTITLE=Drifters, The - Drifters: All the Singles 1953 - 1958 Disk 2 of 2 (Mon
DTITLE=o)
DYEAR=1955
DGENRE=R&B
TTITLE0=Drifters, The - Addorable
TTITLE1=Drifters, The - Steamboat
TTITLE2=Drifters, The - Ruby Baby
TTITLE3=Drifters, The - Your Promise To Be Mine
TTITLE4=Drifters, The - Soldier of Fortune
TTITLE5=Drifters, The - I Gotta Get Myself A Woman
TTITLE6=Flyers, The - My Only Desire
TTITLE7=Flyers, The - On Bended Knee
TTITLE8=Drifters, The - Fools Fall In Love
TTITLE9=Drifters, The - It Was A Tear
TTITLE10=Drifters, The - Drifting Away From You
TTITLE11=Drifters, The - Hypnotized
TTITLE12=Drifters, The - I Know
TTITLE13=Drifters, The - Yodee Yakee
TTITLE14=Drifters, The - Drip Drop
TTITLE15=Drifters, The - Moonlight Bay
TTITLE16=Drifters, The - Honey Bee
TTITLE17=Drifters, The - No Sweet Lovin'
TTITLE18=Drifters, The - I Should Have Done Right
TTITLE19=Drifters, The - Honky Tonky
TTITLE20=Drifters, The - Sade My Lady
TTITLE21=Drifters, The - Souvenirs
TTITLE22=Drifters, The - Suddenly There's A Valley
TTITLE23=Drifters, The - Drip Drop (Unissued Alternate Take)
EXTD=Jasmine Records JASCD 526 c. 2009  UK import. Note Disk 2 is by  the D
EXTD=rifters.  Tracks 17-24 are Bonus Tracks. Tracks 7 and 8 by the Flyers wh
EXTD=o were some of the Drifters..
EXTT0=
EXTT1=
EXTT2=
EXTT3=
EXTT4=
EXTT5=
EXTT6=
EXTT7=
EXTT8=
EXTT9=
EXTT10=
EXTT11=
EXTT12=
EXTT13=
EXTT14=
EXTT15=
EXTT16=
EXTT17=
EXTT18=
EXTT19=
EXTT20=
EXTT21=
EXTT22=
EXTT23=
PLAYORDER=
